<?xml version="1.0" standalone="no"?>
<!DOCTYPE svg PUBLIC "-//W3C//DTD SVG 20010904//EN"
 "http://www.w3.org/TR/2001/REC-SVG-20010904/DTD/svg10.dtd">
<svg version="1.0" xmlns="http://www.w3.org/2000/svg"
 width="50.000000pt" height="50.000000pt" viewBox="0 0 50.000000 50.000000"
 preserveAspectRatio="xMidYMid meet">

<g transform="translate(0.000000,50.000000) scale(0.100000,-0.100000)"
fill="#000000" stroke="none">
<path d="M117 382 c-64 -64 -117 -124 -117 -132 0 -20 231 -250 250 -250 20 0
250 231 250 250 0 20 -231 250 -250 250 -9 0 -68 -53 -133 -118z m253 -17
l115 -115 -118 -118 -117 -117 -117 117 -118 118 115 115 c63 63 117 115 120
115 3 0 57 -52 120 -115z"/>
<path d="M230 285 c0 -67 2 -76 18 -73 14 3 17 15 17 73 0 58 -3 70 -17 73
-16 3 -18 -6 -18 -73z"/>
<path d="M230 155 c0 -8 9 -15 20 -15 11 0 20 7 20 15 0 8 -9 15 -20 15 -11 0
-20 -7 -20 -15z"/>
</g>
</svg>
