<?xml version="1.0" standalone="no"?>
<!DOCTYPE svg PUBLIC "-//W3C//DTD SVG 20010904//EN"
 "http://www.w3.org/TR/2001/REC-SVG-20010904/DTD/svg10.dtd">
<svg version="1.0" xmlns="http://www.w3.org/2000/svg"
 width="50.000000pt" height="50.000000pt" viewBox="0 0 50.000000 50.000000"
 preserveAspectRatio="xMidYMid meet">

<g transform="translate(0.000000,50.000000) scale(0.100000,-0.100000)"
fill="#000000" stroke="none">
<path d="M189 470 c-45 -13 -79 -42 -107 -89 -24 -40 -27 -57 -27 -131 0 -75
3 -91 27 -132 34 -56 80 -87 145 -94 92 -11 180 32 209 103 21 48 18 53 -28
53 -34 0 -46 -5 -67 -31 -30 -35 -90 -48 -131 -27 -60 32 -80 163 -33 226 42
56 137 51 169 -9 13 -25 20 -29 59 -29 34 0 45 4 45 15 0 23 -35 87 -58 108
-43 40 -139 57 -203 37z m146 -29 c46 -21 69 -44 84 -84 10 -25 9 -27 -16 -27
-17 0 -36 12 -57 36 -60 69 -159 54 -197 -29 -37 -83 -12 -199 50 -231 56 -29
136 -12 161 34 7 13 21 20 41 20 29 0 29 0 15 -29 -47 -90 -177 -119 -267 -58
-86 59 -105 223 -36 321 42 60 146 82 222 47z"/>
</g>
</svg>
