<?xml version="1.0" standalone="no"?>
<!DOCTYPE svg PUBLIC "-//W3C//DTD SVG 20010904//EN"
 "http://www.w3.org/TR/2001/REC-SVG-20010904/DTD/svg10.dtd">
<svg version="1.0" xmlns="http://www.w3.org/2000/svg"
 width="64.000000pt" height="64.000000pt" viewBox="0 0 64.000000 64.000000"
 preserveAspectRatio="xMidYMid meet">

<g transform="translate(0.000000,64.000000) scale(0.100000,-0.100000)"
fill="#000000" stroke="none">
<path d="M119 592 l-24 -20 0 -252 0 -252 24 -19 c21 -17 41 -19 201 -19 240
0 224 -15 228 212 2 162 -4 215 -25 194 -4 -4 -10 -89 -13 -189 l-5 -182 -185
0 -185 0 0 255 0 255 137 3 137 3 7 -36 c8 -44 36 -65 86 -65 35 0 38 2 38 30
0 19 -11 42 -29 62 l-29 33 -169 3 c-156 3 -171 2 -194 -16z m381 -52 c15 -28
13 -32 -17 -28 -24 2 -29 8 -31 36 -3 31 -2 33 17 22 11 -6 25 -19 31 -30z"/>
<path d="M200 345 c0 -13 12 -15 73 -13 39 2 72 8 72 13 0 6 -33 11 -72 13
-61 2 -73 0 -73 -13z"/>
<path d="M400 345 c0 -8 9 -15 20 -15 11 0 20 7 20 15 0 8 -9 15 -20 15 -11 0
-20 -7 -20 -15z"/>
<path d="M203 268 c2 -7 10 -13 17 -13 7 0 15 6 18 13 2 7 -5 12 -18 12 -13 0
-20 -5 -17 -12z"/>
<path d="M303 268 c2 -9 25 -13 67 -13 42 0 65 4 68 13 3 9 -15 12 -68 12 -53
0 -71 -3 -67 -12z"/>
<path d="M200 195 c0 -13 12 -15 73 -13 39 2 72 8 72 13 0 6 -33 11 -72 13
-61 2 -73 0 -73 -13z"/>
<path d="M400 195 c0 -8 9 -15 20 -15 11 0 20 7 20 15 0 8 -9 15 -20 15 -11 0
-20 -7 -20 -15z"/>
</g>
</svg>
