<?xml version="1.0" standalone="no"?>
<!DOCTYPE svg PUBLIC "-//W3C//DTD SVG 20010904//EN"
 "http://www.w3.org/TR/2001/REC-SVG-20010904/DTD/svg10.dtd">
<svg version="1.0" xmlns="http://www.w3.org/2000/svg"
 width="30.000000pt" height="30.000000pt" viewBox="0 0 30.000000 30.000000"
 preserveAspectRatio="xMidYMid meet">

<g transform="translate(0.000000,30.000000) scale(0.100000,-0.100000)"
fill="#000000" stroke="none">
<path d="M190 260 c0 -5 10 -10 22 -10 19 0 15 -8 -32 -55 -29 -30 -51 -58
-47 -62 4 -4 32 18 62 47 47 47 55 51 55 32 0 -12 5 -22 10 -22 6 0 10 18 10
40 l0 40 -40 0 c-22 0 -40 -4 -40 -10z"/>
<path d="M44 217 c-3 -8 -4 -49 -2 -93 l3 -79 90 0 90 0 3 68 c2 46 -1 67 -8
62 -5 -3 -10 -31 -10 -61 l0 -54 -75 0 -75 0 0 75 0 75 54 0 c30 0 58 5 61 10
4 6 -18 10 -60 10 -46 0 -67 -4 -71 -13z"/>
</g>
</svg>
