<?xml version="1.0" standalone="no"?>
<!DOCTYPE svg PUBLIC "-//W3C//DTD SVG 20010904//EN"
 "http://www.w3.org/TR/2001/REC-SVG-20010904/DTD/svg10.dtd">
<svg version="1.0" xmlns="http://www.w3.org/2000/svg"
 width="24.000000pt" height="24.000000pt" viewBox="0 0 24.000000 24.000000"
 preserveAspectRatio="xMidYMid meet">

<g transform="translate(0.000000,24.000000) scale(0.100000,-0.100000)"
fill="#000000" stroke="none">
<path d="M27 204 c-4 -4 -7 -39 -7 -77 0 -60 2 -70 20 -74 12 -3 20 -14 20
-26 l0 -21 15 21 c13 18 27 23 78 25 l62 3 0 75 0 75 -90 3 c-50 1 -94 0 -98
-4z m173 -74 l0 -60 -80 0 -80 0 0 60 0 60 80 0 80 0 0 -60z"/>
<path d="M70 140 c0 -11 5 -20 11 -20 8 0 8 -5 -1 -15 -15 -18 1 -20 18 -3 20
20 15 58 -8 58 -13 0 -20 -7 -20 -20z"/>
<path d="M130 140 c0 -11 5 -20 11 -20 8 0 8 -5 -1 -15 -15 -18 1 -20 18 -3
20 20 15 58 -8 58 -13 0 -20 -7 -20 -20z"/>
</g>
</svg>
